<svg id="visual" viewBox="0 0 1920 2114" width="1920" height="2114" xmlns="http://www.w3.org/2000/svg" xmlns:xlink="http://www.w3.org/1999/xlink" version="1.1"><rect x="0" y="0" width="1920" height="2114" fill="#76a676"></rect><defs><linearGradient id="grad1_0" x1="0%" y1="100%" x2="100%" y2="0%"><stop offset="30%" stop-color="#76a676" stop-opacity="1"></stop><stop offset="70%" stop-color="#76a676" stop-opacity="1"></stop></linearGradient></defs><defs><linearGradient id="grad2_0" x1="0%" y1="100%" x2="100%" y2="0%"><stop offset="30%" stop-color="#76a676" stop-opacity="1"></stop><stop offset="70%" stop-color="#76a676" stop-opacity="1"></stop></linearGradient></defs><g transform="translate(1920, 2114)"><path d="M-785.3 0C-759.1 -94.1 -732.8 -188.1 -701.2 -290.5C-669.6 -392.8 -632.7 -503.4 -555.3 -555.3C-477.9 -607.3 -359.9 -600.6 -260.6 -629.2C-161.3 -657.7 -80.6 -721.5 0 -785.3L0 0Z" fill="#547654"></path></g><g transform="translate(0, 0)"><path d="M785.3 0C785.6 114.5 785.9 229 725.6 300.5C665.2 372.1 544.2 400.7 468.1 468.1C392.1 535.6 361 641.9 290.5 701.2C219.9 760.6 110 773 0 785.3L0 0Z" fill="#547654"></path></g></svg>