<svg width="100" height="100" viewBox="0 0 100 100" fill="none" xmlns="http://www.w3.org/2000/svg">
<g clip-path="url(#clip0_86_1529)">
<path d="M50 20.8333C55.7458 20.8333 60.4167 16.1583 60.4167 10.4167C60.4167 4.675 55.7458 0 50 0C44.2542 0 39.5834 4.675 39.5834 10.4167C39.5834 16.1583 44.2542 20.8333 50 20.8333ZM50 4.16667C53.4459 4.16667 56.25 6.97083 56.25 10.4167C56.25 13.8625 53.4459 16.6667 50 16.6667C46.5542 16.6667 43.75 13.8625 43.75 10.4167C43.75 6.97083 46.5542 4.16667 50 4.16667ZM100 22.9167V65.0042C100 73.35 96.75 81.1958 90.85 87.1L78.5583 99.3917C78.15 99.8 77.6167 100 77.0833 100C76.55 100 76.0167 99.7958 75.6083 99.3917C74.7958 98.5792 74.7958 97.2583 75.6083 96.4458L87.9 84.1542C93.0167 79.0375 95.8292 72.2375 95.8292 65.0042V22.9167C95.8292 19.4708 93.025 16.6667 89.5792 16.6667C86.1333 16.6667 83.3292 19.4708 83.3292 22.9167C83.3292 22.9167 83.3375 56.4 83.3292 56.475C83.2792 58.775 82.4584 61.0625 80.8959 62.9167L69.9 74.3583C69.4917 74.7833 68.9458 74.9958 68.4 74.9958C67.8792 74.9958 67.3583 74.8042 66.9542 74.4125C66.125 73.6167 66.1 72.2958 66.8958 71.4667L77.7958 60.1292C78.7333 59.0083 79.1875 57.575 79.1583 56.1333V56.0958C79.1208 54.6542 78.5917 53.2083 77.5667 52.0625C76.4542 50.825 74.925 50.0875 73.2667 49.9958C71.6208 49.9125 70.0083 50.4667 68.7667 51.5792L57.3958 62.0458C55.225 64.0458 53.5417 66.4333 52.275 69.0917C53.4875 72.2 54.1583 75.5167 54.1583 78.9083V97.9042C54.1583 99.0542 53.225 99.9875 52.075 99.9875C50.925 99.9875 49.9917 99.0542 49.9917 97.9042V78.9083C49.9917 72.5208 47.2958 66.3708 42.5917 62.0417L31.2 51.5583C29.9833 50.4625 28.3875 49.9083 26.7208 49.9958C25.0625 50.0875 23.5292 50.8208 22.4208 52.0625C20.3625 54.3583 20.3042 57.8708 22.2875 60.2292L33.0958 71.4583C33.8917 72.2875 33.8708 73.6083 33.0375 74.4042C32.2167 75.2 30.8833 75.1792 30.0917 74.3458L19.1917 63.0083C17.6083 61.125 16.7458 58.8458 16.6667 56.5625C16.65 56.45 16.6667 22.9 16.6667 22.9C16.6667 19.4542 13.8625 16.65 10.4167 16.65C6.97085 16.65 4.16668 19.4542 4.16668 22.9V64.9875C4.16668 72.2208 6.98335 79.0208 12.0958 84.1375L24.3875 96.4292C25.2 97.2417 25.2 98.5625 24.3875 99.375C23.9792 99.7833 23.4458 99.9833 22.9125 99.9833C22.3792 99.9833 21.8458 99.7792 21.4375 99.375L9.14585 87.0833C3.24585 81.1792 -0.00415039 73.3333 -0.00415039 64.9875V22.9167C-0.00415039 17.175 4.66668 12.5 10.4125 12.5C16.1583 12.5 20.8292 17.175 20.8292 22.9167V47.9042C22.4583 46.6792 24.4125 45.9625 26.4917 45.8458C29.2958 45.6625 31.9334 46.6292 34.0042 48.4833L45.4167 58.9875C47.2083 60.6333 48.7209 62.525 49.9917 64.5542C51.2667 62.5167 52.7792 60.6375 54.5709 58.9875L65.9625 48.5042C68.0542 46.6292 70.7208 45.6625 73.4958 45.85C75.5792 45.9625 77.5333 46.6792 79.1583 47.9083V22.9208C79.1583 17.1792 83.8292 12.5042 89.575 12.5042C95.3208 12.5042 99.9917 17.1792 99.9917 22.9208L100 22.9167ZM33.5667 39.2875C34.7417 31.1417 41.8083 25 50 25C58.1917 25 65.2583 31.1417 66.4333 39.2875C66.5958 40.425 65.8542 41.6667 64.3667 41.6667C63.35 41.6667 62.4584 40.9167 62.3083 39.8792C61.4292 33.7708 56.1375 29.1667 50 29.1667C43.8625 29.1667 38.5708 33.7708 37.6917 39.8792C37.525 41.0167 36.4458 41.7875 35.3333 41.6458C34.1958 41.4792 33.4042 40.425 33.5667 39.2875Z" fill="#824209"/>
</g>
<defs>
<clipPath id="clip0_86_1529">
<rect width="100" height="100" fill="white"/>
</clipPath>
</defs>
</svg>
