<svg width="100" height="100" viewBox="0 0 100 100" fill="none" xmlns="http://www.w3.org/2000/svg">
<path d="M50.0021 70.8333C57.5107 70.8333 63.4943 75.225 63.7443 75.4125C64.6652 76.1 64.8569 77.4042 64.1735 78.3208C63.7652 78.875 63.136 79.1625 62.4984 79.1625C62.0692 79.1625 61.6317 79.0333 61.2609 78.7542C61.2109 78.7167 56.0982 75 50.0021 75C43.906 75 38.7933 78.7208 38.7433 78.7542C37.8141 79.4417 36.5099 79.2417 35.8307 78.3208C35.1473 77.4 35.339 76.1 36.2598 75.4125C36.5098 75.225 42.4976 70.8333 50.0021 70.8333ZM50.0021 0C28.1428 0 9.00037 13.975 2.35843 34.7833C2.01258 35.8833 2.61678 37.0542 3.71265 37.4042C4.80853 37.7375 5.98358 37.1458 6.32943 36.0542C12.413 16.9792 29.9637 4.16667 50.0021 4.16667C75.274 4.16667 95.8373 24.7292 95.8373 50C95.8373 75.2708 75.274 95.8333 50.0021 95.8333C35.9598 95.8333 22.8885 89.525 14.1298 78.5333C13.4172 77.6292 12.1047 77.4833 11.2005 78.2C10.3004 78.9208 10.1546 80.2292 10.8671 81.1292C20.4175 93.1208 34.6806 100 49.9979 100C77.5699 100 100 77.5708 100 50C100 22.4292 77.5741 0 50.0021 0ZM33.3347 45.8333C31.0346 45.8333 29.1679 47.7 29.1679 50C29.1679 52.3 31.0346 54.1667 33.3347 54.1667C35.6348 54.1667 37.5016 52.3 37.5016 50C37.5016 47.7 35.6348 45.8333 33.3347 45.8333ZM66.6694 54.1667C68.9695 54.1667 70.8363 52.3 70.8363 50C70.8363 47.7 68.9695 45.8333 66.6694 45.8333C64.3693 45.8333 62.5026 47.7 62.5026 50C62.5026 52.3 64.3693 54.1667 66.6694 54.1667ZM10.4171 70.8333C4.67519 70.8333 0 66.1625 0 60.4167C0 55.1208 4.24184 48.1333 6.91695 44.9667C7.79199 43.9333 9.07121 43.3375 10.4213 43.3333H10.4296C11.7755 43.3333 13.0464 43.9208 13.9256 44.95C16.5965 48.0667 20.83 55.025 20.83 60.4167C20.83 66.1625 16.159 70.8333 10.4171 70.8333ZM16.6674 60.4167C16.6674 56.5958 13.2381 50.55 10.7629 47.6583H10.1004C7.61282 50.6042 4.16684 56.6708 4.16684 60.4167C4.16684 63.8625 6.97112 66.6667 10.4171 66.6667C13.8631 66.6667 16.6674 63.8625 16.6674 60.4167ZM80.6825 41.5833C80.8742 41.6417 81.0659 41.6667 81.2575 41.6667C82.1618 41.6667 82.9951 41.0667 83.2576 40.1583C83.5743 39.05 82.9326 37.8958 81.8242 37.5833C73.6781 35.2542 68.2403 28.6208 66.2819 25.875C65.6194 24.9375 64.311 24.7208 63.3776 25.3875C62.4401 26.0583 62.2234 27.3583 62.8943 28.2917C65.1069 31.3958 71.2696 38.9 80.6825 41.5833ZM36.6307 25.3833C35.6973 24.7208 34.3931 24.9375 33.7264 25.8708C31.7638 28.6125 26.3303 35.25 18.1841 37.5792C17.0757 37.8917 16.4382 39.05 16.7507 40.1542C17.0132 41.0667 17.8466 41.6625 18.7508 41.6625C18.9425 41.6625 19.1341 41.6375 19.3258 41.5792C28.7387 38.8917 34.9015 31.3917 37.1182 28.2875C37.7891 27.35 37.5641 26.0542 36.6307 25.3833Z" fill="#824209"/>
</svg>
