<svg width="100" height="100" viewBox="0 0 100 100" fill="none" xmlns="http://www.w3.org/2000/svg">
<g clip-path="url(#clip0_86_1558)">
<path d="M96.9625 39.2458C90.5 28.7208 75.8 11.0625 50 11.0625C24.2 11.0625 9.5 28.7208 3.0375 39.2458C1.0397 42.4771 -0.0185242 46.201 -0.0185242 50C-0.0185242 53.799 1.0397 57.5229 3.0375 60.7542C9.5 71.2792 24.2 88.9375 50 88.9375C75.8 88.9375 90.5 71.2792 96.9625 60.7542C98.9603 57.5229 100.019 53.799 100.019 50C100.019 46.201 98.9603 42.4771 96.9625 39.2458ZM89.8583 56.3917C84.3083 65.4167 71.7458 80.6042 50 80.6042C28.2542 80.6042 15.6917 65.4167 10.1417 56.3917C8.95473 54.471 8.32604 52.2578 8.32604 50C8.32604 47.7422 8.95473 45.529 10.1417 43.6083C15.6917 34.5833 28.2542 19.3958 50 19.3958C71.7458 19.3958 84.3083 34.5667 89.8583 43.6083C91.0453 45.529 91.674 47.7422 91.674 50C91.674 52.2578 91.0453 54.471 89.8583 56.3917Z" fill="#824209"/>
<path d="M50 29.1667C45.8796 29.1667 41.8516 30.3885 38.4256 32.6777C34.9996 34.9669 32.3293 38.2207 30.7525 42.0274C29.1757 45.8342 28.7631 50.0231 29.567 54.0644C30.3708 58.1057 32.355 61.8178 35.2686 64.7314C38.1822 67.645 41.8943 69.6292 45.9356 70.433C49.9769 71.2369 54.1658 70.8243 57.9726 69.2475C61.7794 67.6707 65.0331 65.0004 67.3223 61.5744C69.6115 58.1484 70.8333 54.1205 70.8333 50C70.8267 44.4767 68.6297 39.1815 64.7241 35.2759C60.8185 31.3704 55.5233 29.1733 50 29.1667ZM50 62.5C47.5277 62.5 45.111 61.7669 43.0554 60.3934C40.9998 59.0199 39.3976 57.0676 38.4515 54.7836C37.5054 52.4995 37.2579 49.9862 37.7402 47.5614C38.2225 45.1366 39.413 42.9093 41.1612 41.1612C42.9093 39.413 45.1366 38.2225 47.5614 37.7402C49.9861 37.2579 52.4995 37.5054 54.7835 38.4515C57.0676 39.3976 59.0199 40.9998 60.3934 43.0554C61.7669 45.111 62.5 47.5278 62.5 50C62.5 53.3152 61.183 56.4947 58.8388 58.8389C56.4946 61.1831 53.3152 62.5 50 62.5Z" fill="#824209"/>
</g>
<defs>
<clipPath id="clip0_86_1558">
<rect width="100" height="100" fill="white"/>
</clipPath>
</defs>
</svg>
