<svg width="100" height="100" viewBox="0 0 100 100" fill="none" xmlns="http://www.w3.org/2000/svg">
<g clip-path="url(#clip0_86_1454)">
<path d="M60.4168 100C59.2668 100 58.3335 99.0667 58.3335 97.9167V77.0833C58.3335 75.9333 59.2668 75 60.4168 75C61.5668 75 62.5001 75.9333 62.5001 77.0833V97.9167C62.5001 99.0667 61.5668 100 60.4168 100ZM27.0835 100C25.9335 100 25.0001 99.0667 25.0001 97.9167V77.0833C25.0001 75.9333 25.9335 75 27.0835 75C28.2335 75 29.1668 75.9333 29.1668 77.0833V97.9167C29.1668 99.0667 28.2335 100 27.0835 100ZM77.0835 91.6667C75.9335 91.6667 75.0001 90.7333 75.0001 89.5833V68.75C75.0001 67.6 75.9335 66.6667 77.0835 66.6667C78.2335 66.6667 79.1668 67.6 79.1668 68.75V89.5833C79.1668 90.7333 78.2335 91.6667 77.0835 91.6667ZM43.7501 91.6667C42.6001 91.6667 41.6668 90.7333 41.6668 89.5833V68.75C41.6668 67.6 42.6001 66.6667 43.7501 66.6667C44.9001 66.6667 45.8335 67.6 45.8335 68.75V89.5833C45.8335 90.7333 44.9001 91.6667 43.7501 91.6667ZM14.7001 81.675C14.4335 81.675 13.2918 81.2458 13.2918 81.2458C6.72514 78.2083 1.94181 72.2375 0.504308 65.2708C-1.12486 57.3958 1.33347 49.4167 7.07514 43.9292C8.44598 42.6208 9.02931 40.5125 8.68764 38.1458C8.12514 34.3 8.24181 30.3833 9.03348 26.4958C11.6835 13.425 22.2418 3.01666 35.3043 0.595826C50.196 -2.20001 64.7252 4.99583 71.4501 18.4208C72.2585 20.0417 73.7835 21.2042 75.621 21.6167C90.2918 24.9083 100.538 38.2167 99.9835 53.2708C99.7001 60.9333 96.4251 68.225 90.7668 73.8042C89.9543 74.6042 88.6335 74.6 87.821 73.7792C87.0168 72.9625 87.0251 71.6417 87.846 70.8333C92.7418 66.0083 95.571 59.7167 95.8168 53.1167C96.3001 40.0708 87.4251 28.5375 74.7126 25.6875C71.6501 25 69.1001 23.0292 67.7251 20.2875C61.8418 8.54166 49.121 2.26666 36.0668 4.69166C24.6543 6.80416 15.4293 15.9 13.1126 27.3292C12.4168 30.7417 12.3168 34.1833 12.8043 37.5458C13.346 41.2667 12.3085 44.6875 9.95014 46.9417C5.25014 51.4333 3.24598 57.9667 4.57931 64.425C5.75431 70.1042 9.66264 74.9792 15.0418 77.4667L15.4918 77.6667C16.5543 78.1042 17.0585 79.3208 16.621 80.3875C16.2876 81.1875 15.5126 81.675 14.696 81.675H14.7001Z" fill="#824209"/>
</g>
<defs>
<clipPath id="clip0_86_1454">
<rect width="100" height="100" fill="white"/>
</clipPath>
</defs>
</svg>
