<svg width="90" height="90" viewBox="0 0 90 90" fill="none" xmlns="http://www.w3.org/2000/svg">
<g clip-path="url(#clip0_86_1662)">
<path d="M73.125 14.9925H67.395C66.4613 6.56624 59.295 -0.00750732 50.625 -0.00750732H16.875C7.57125 -0.00750732 0 7.56374 0 16.8675V68.82C0 71.1037 1.24875 73.1925 3.26625 74.2688C4.18125 74.76 5.1825 75 6.18 75C7.37625 75 8.5725 74.6512 9.6075 73.9613L22.8225 65.1525C24.3563 72.8888 31.1963 78.7387 39.375 78.7387H65.0588L80.3925 88.9613C81.4275 89.655 82.62 90 83.82 90C84.8175 90 85.8187 89.76 86.7337 89.2688C88.7475 88.1925 90 86.1038 90 83.82V31.8675C90 22.5637 82.4287 14.9925 73.125 14.9925ZM7.52625 70.845C6.765 71.3512 5.83875 71.4 5.0325 70.965C4.23 70.5375 3.75 69.735 3.75 68.8238V16.8675C3.75 9.62999 9.6375 3.74249 16.875 3.74249H50.625C57.8625 3.74249 63.75 9.62999 63.75 16.8675V46.8675C63.75 54.105 57.8625 59.9925 50.625 59.9925H24.6112C24.0338 59.9925 23.5425 60.195 23.3175 60.3187L7.52625 70.845ZM86.25 83.8238C86.25 84.735 85.77 85.5375 84.9675 85.965C84.165 86.3962 83.2312 86.3475 82.4737 85.845L66.6675 75.3075C66.36 75.1012 65.9962 74.9925 65.6287 74.9925H39.3787C32.7788 74.9925 27.3 70.095 26.3888 63.7425H50.6287C59.9325 63.7425 67.5037 56.1712 67.5037 46.8675V18.7425H73.1287C80.3662 18.7425 86.2537 24.63 86.2537 31.8675V83.82L86.25 83.8238Z" fill="#824209"/>
</g>
<defs>
<clipPath id="clip0_86_1662">
<rect width="90" height="90" fill="white"/>
</clipPath>
</defs>
</svg>
