<svg width="953" height="739" viewBox="0 0 953 739" fill="none" xmlns="http://www.w3.org/2000/svg">
<path d="M940.016 264.033C891.977 264.247 716.678 274.179 586.276 400.752C531.488 449.559 498.006 505.022 476.418 557.008C454.831 505.022 421.349 449.559 366.561 400.752C236.158 274.179 60.8596 264.247 12.8208 264.033C5.5257 264 -0.0655879 269.633 0.000581224 276.914C0.381054 322.904 11.8118 484.695 146.846 605.206C285.835 739.982 423.483 738.433 476.418 738.433C529.354 738.433 666.969 739.998 805.99 605.206C941.041 484.678 952.456 322.904 952.836 276.914C952.902 269.633 947.311 264 940.016 264.033ZM476.385 446.216C497.592 415.165 522.042 387.278 549.32 362.998C580.899 332.343 614.794 308.145 649.004 288.576C621.808 172.447 563.447 69.4129 488.99 4.89106C482.192 -1.006 470.761 -1.006 463.945 4.89106C389.522 69.3634 331.16 172.299 303.915 288.329C337.612 307.602 370.912 331.388 401.879 361.449C430.067 386.599 455.085 415.063 476.385 446.216Z" fill="#EDEDDA"/>
</svg>
