<svg width="100" height="100" viewBox="0 0 100 100" fill="none" xmlns="http://www.w3.org/2000/svg">
<g clip-path="url(#clip0_86_1629)">
<path d="M100 56.4375C100 58.8708 98.2834 62.5 93.5584 62.5H91.2709L89.1168 72.6417C87.2918 81.25 79.5793 87.5 70.7751 87.5H66.6668V89.5833C66.6668 95.325 61.9959 100 56.2501 100H22.9168C16.7834 100 12.5001 95.7167 12.5001 89.5833V84.25C12.5001 80.3958 11.1209 76.4583 8.50842 72.8625C5.03342 68.075 2.60426 62.6375 1.28759 56.7042C1.03759 55.5792 1.74592 54.4667 2.87092 54.2167C3.99176 53.9667 5.10842 54.675 5.35842 55.8C6.55009 61.175 8.74592 66.0875 11.8834 70.4167C15.0126 74.7292 16.6668 79.5167 16.6668 84.25V89.5833C16.6668 94.1958 20.0334 95.8333 22.9168 95.8333H56.2501C59.6959 95.8333 62.5001 93.0292 62.5001 89.5833V85.4167C62.5001 84.2667 63.4334 83.3333 64.5834 83.3333H70.7751C77.6251 83.3333 83.6209 78.4708 85.0418 71.7792L87.5459 59.9833C87.7501 59.0208 88.5918 58.3333 89.5751 58.3333H93.5584C95.3834 58.3333 95.8043 57.2875 95.8334 56.4083C95.8334 52.8333 84.9709 28.1458 79.1043 20.9C69.8293 8.50833 55.1751 2.44167 39.8709 4.59167C38.7293 4.74167 37.6793 3.95833 37.5209 2.81667C37.3626 1.675 38.1543 0.625 39.2959 0.466667C56.1334 -1.88333 72.2418 4.7875 82.3959 18.3417C88.1209 25.4167 100.004 51.1 100.004 56.4458L100 56.4375ZM1.18759 30.9333C0.0417575 29.3917 -0.295742 27.4625 0.258424 25.6375L7.83342 4.14583C8.68759 1.67083 11.0626 0 13.7376 0H22.9126C24.9834 0 26.9126 1.0125 28.0751 2.70417C29.2293 4.38333 29.4793 6.525 28.7459 8.4375L25.8543 16.6667H31.6376C33.8084 16.6667 35.7876 17.8458 36.8043 19.7417C37.8168 21.625 37.7043 23.9083 36.5168 25.7042L18.6709 47.6417C17.1251 49.9208 14.0793 50.6208 11.6293 49.4333C9.04592 48.2125 7.78759 45.4417 8.57092 42.6958L11.6959 33.3333H5.92926C4.04592 33.3333 2.32092 32.4583 1.18759 30.9333ZM4.53342 28.45C4.87092 28.9042 5.38342 29.1667 5.93342 29.1667H14.5834C15.2543 29.1667 15.8834 29.4875 16.2751 30.0333C16.6668 30.575 16.7751 31.275 16.5584 31.9125L12.5501 43.9292C12.2418 45.0167 13.1251 45.5375 13.4043 45.6667C13.6876 45.8042 14.6501 46.15 15.3418 45.1458L33.1668 23.2375C33.5418 22.6542 33.2751 21.9708 33.1334 21.7125C32.9918 21.45 32.5626 20.8333 31.6376 20.8333H22.9168C22.2418 20.8333 21.6084 20.5042 21.2168 19.9542C20.8251 19.4042 20.7293 18.6958 20.9543 18.0583L24.8418 7.00417C25.1084 6.30833 25.0293 5.62083 24.6501 5.06667C24.2584 4.49583 23.6251 4.17083 22.9168 4.17083H13.7376C12.8251 4.17083 12.0501 4.7 11.7668 5.52083L4.21676 26.9333C4.07926 27.3917 4.18342 27.9792 4.53342 28.45Z" fill="#824209"/>
</g>
<defs>
<clipPath id="clip0_86_1629">
<rect width="100" height="100" fill="white"/>
</clipPath>
</defs>
</svg>
