<svg width="65" height="64" viewBox="0 0 65 64" fill="none" xmlns="http://www.w3.org/2000/svg">
<g clip-path="url(#clip0_38_24)">
<path d="M23.1538 30.6497C22.6743 32.6514 20.7185 34.1549 18.3843 34.1549C17.762 34.1549 17.2575 34.6154 17.2575 35.1837C17.2575 35.7519 17.762 36.2124 18.3843 36.2124C21.9562 36.2124 24.9232 33.8042 25.4406 30.6728C27.6275 30.4569 29.6464 29.5672 31.2092 28.1109C31.6447 27.705 31.6374 27.0536 31.1928 26.6561C30.7484 26.2587 30.0349 26.265 29.5993 26.6709C28.2172 27.9589 26.3687 28.6682 24.394 28.6682C20.3761 28.6682 17.1072 25.6838 17.1072 22.0155C17.1072 21.4472 16.6027 20.9868 15.9804 20.9868C15.3581 20.9868 14.8536 21.4472 14.8536 22.0155C14.8536 26.4344 18.4773 30.0925 23.1538 30.6497Z" fill="#F9FAF9"/>
<path d="M27.9247 39.573C27.9247 39.0048 27.4202 38.5443 26.7979 38.5443C21.5373 38.5443 17.2575 42.4516 17.2575 47.2545C17.2575 47.3041 17.2594 47.3539 17.2603 47.4037C16.8413 47.3521 16.4146 47.323 15.9804 47.323C15.3581 47.323 14.8536 47.7835 14.8536 48.3518C14.8536 48.9201 15.3581 49.3806 15.9804 49.3806C19.9984 49.3806 23.2672 52.3649 23.2672 56.0332C23.2672 56.6015 23.7717 57.062 24.394 57.062C25.0163 57.062 25.5208 56.6015 25.5208 56.0332C25.5208 52.383 23.0475 49.252 19.5515 47.9585C19.5248 47.7255 19.5111 47.4897 19.5111 47.2545C19.5111 43.5862 22.78 40.6018 26.7979 40.6018C27.4202 40.6018 27.9247 40.1413 27.9247 39.573Z" fill="#F9FAF9"/>
<path d="M63.1549 30.7943C63.1549 28.4521 62.188 26.2326 60.4788 24.6003C60.7495 23.7625 60.8864 22.8959 60.8864 22.0155C60.8864 17.7806 57.7458 14.2437 53.5999 13.466C53.9167 12.7018 54.0811 11.8826 54.0811 11.0421C54.0811 8.35948 52.3963 6.05095 49.997 5.05319C45.9995 1.97294 41.6275 0.137222 38.2728 0.137222C36.4079 0.137222 34.7542 1.02443 33.7358 2.38458C32.7174 1.02443 31.0637 0.137222 29.1989 0.137222C25.8442 0.137222 21.4721 1.97294 17.4747 5.05319C15.0754 6.05095 13.3906 8.35948 13.3906 11.0421C13.3906 11.8826 13.5549 12.7018 13.8718 13.466C9.72591 14.2437 6.58523 17.7806 6.58523 22.0155C6.58523 22.8959 6.72205 23.7624 6.99284 24.6003C5.2837 26.2326 4.31677 28.4521 4.31677 30.7943C4.31677 32.6252 4.90501 34.3251 5.90654 35.7289C4.86574 37.1845 4.31677 38.8825 4.31677 40.6704C4.31677 43.8373 6.10134 46.739 8.92685 48.2689C8.87822 48.6601 8.85369 49.0549 8.85369 49.4491C8.85369 53.7211 11.7339 57.498 15.9128 58.7852C17.7306 61.7949 21.0417 63.646 24.662 63.646C28.6311 63.646 32.0726 61.4265 33.7358 58.204C35.399 61.4265 38.8406 63.646 42.8097 63.646C46.43 63.646 49.7411 61.7949 51.5588 58.7852C55.7378 57.4979 58.618 53.7209 58.618 49.4491C58.618 49.0549 58.5935 48.6601 58.5448 48.2689C61.3703 46.739 63.1549 43.8373 63.1549 40.6704C63.1549 38.8825 62.6059 37.1845 61.5651 35.7289C62.5667 34.3251 63.1549 32.6252 63.1549 30.7943ZM24.662 61.5885C21.6805 61.5885 18.9638 59.9982 17.5718 57.4383C17.4338 57.1847 17.1931 56.9983 16.9071 56.9238C13.4175 56.0152 10.9804 52.9416 10.9804 49.4491C10.9804 48.9265 11.0348 48.4031 11.1421 47.8931C11.2417 47.4203 10.988 46.9439 10.5322 46.7477C8.04839 45.6795 6.44345 43.2938 6.44345 40.6704C6.44345 39.4771 6.7633 38.3366 7.37366 37.3264C8.96102 38.6803 11.0422 39.5044 13.3197 39.5044C13.907 39.5044 14.3831 39.044 14.3831 38.4757C14.3831 37.9074 13.907 37.4469 13.3197 37.4469C9.52813 37.4469 6.44345 34.4626 6.44345 30.7943C6.44345 28.8196 7.34403 26.9585 8.91437 25.6887C9.26882 25.4021 9.39146 24.9268 9.21778 24.5127C8.88204 23.7122 8.71191 22.872 8.71191 22.0155C8.71191 18.3472 11.7966 15.3629 15.5882 15.3629C19.3798 15.3629 22.4644 18.3472 22.4644 22.0155C22.4644 22.5838 22.9405 23.0443 23.5278 23.0443C24.115 23.0443 24.5911 22.5838 24.5911 22.0155C24.5911 17.4009 20.8621 13.6149 16.1665 13.3252C15.7409 12.6369 15.5173 11.8543 15.5173 11.0421C15.5173 9.20828 16.668 7.63003 18.3072 6.94638C18.3706 6.92814 18.4327 6.90427 18.4927 6.87409C19.0005 6.68727 19.5505 6.58412 20.1251 6.58412C21.9054 6.58412 23.4947 7.54718 24.273 9.09772C24.5296 9.60895 25.1659 9.82211 25.694 9.5737C26.2223 9.32556 26.4426 8.71009 26.186 8.199C25.2976 6.42912 23.6162 5.15702 21.68 4.70643C24.3939 3.1043 27.0657 2.19474 29.1989 2.19474C31.1142 2.19474 32.6725 3.70222 32.6725 5.55536V18.8677C31.7171 18.1344 30.5104 17.6947 29.1989 17.6947C28.6117 17.6947 28.1356 18.1552 28.1356 18.7235C28.1356 19.2918 28.6117 19.7522 29.1989 19.7522C31.1142 19.7522 32.6725 21.2597 32.6725 23.1129V47.8414C31.3504 46.1911 29.4866 44.9456 27.2941 44.3757C26.7272 44.2288 26.1437 44.5536 25.9913 45.1023C25.8389 45.6511 26.1752 46.2154 26.7423 46.3627C30.2339 47.2703 32.6725 50.3444 32.6725 53.8385C32.6725 58.1118 29.079 61.5885 24.662 61.5885ZM56.9395 46.7479C56.4837 46.944 56.23 47.4203 56.3295 47.8932C56.4369 48.4032 56.4913 48.9267 56.4913 49.4493C56.4913 52.9417 54.0541 56.0154 50.5645 56.924C50.2786 56.9984 50.0377 57.1849 49.8999 57.4385C48.5079 59.9982 45.7911 61.5885 42.8097 61.5885C38.3927 61.5885 34.7992 58.1118 34.7992 53.8385C34.7992 53.5492 34.7853 53.2624 34.7593 52.9783C34.7846 52.8904 34.7992 52.7981 34.7992 52.7023V18.7235C34.7992 16.8703 36.3575 15.3629 38.2728 15.3629C38.86 15.3629 39.3361 14.9024 39.3361 14.3341C39.3361 13.7658 38.86 13.3054 38.2728 13.3054C36.9613 13.3054 35.7546 13.745 34.7992 14.4783V5.55536C34.7992 3.70222 36.3575 2.19474 38.2728 2.19474C40.406 2.19474 43.0778 3.1043 45.7917 4.70643C43.8554 5.15689 42.1741 6.42912 41.2857 8.199C41.0291 8.71022 41.2494 9.3257 41.7777 9.5737C42.3059 9.82197 42.9421 9.60895 43.1987 9.09772C43.9769 7.54718 45.5663 6.58412 47.3466 6.58412C47.9212 6.58412 48.4713 6.68727 48.979 6.87409C49.0389 6.90427 49.101 6.928 49.164 6.94624C50.8036 7.62989 51.9544 9.20814 51.9544 11.0421C51.9544 11.8543 51.7308 12.6369 51.3052 13.3252C46.6096 13.6149 42.8806 17.4009 42.8806 22.0155C42.8806 22.5838 43.3567 23.0443 43.9439 23.0443C44.5311 23.0443 45.0072 22.5838 45.0072 22.0155C45.0072 18.3472 48.0919 15.3629 51.8835 15.3629C55.6751 15.3629 58.7598 18.3472 58.7598 22.0155C58.7598 22.872 58.5896 23.7122 58.254 24.5127C58.0804 24.9269 58.203 25.4021 58.5574 25.6887C60.1276 26.9585 61.0282 28.8196 61.0282 30.7943C61.0282 34.4626 57.9435 37.4469 54.152 37.4469C53.5647 37.4469 53.0886 37.9074 53.0886 38.4757C53.0886 39.044 53.5647 39.5044 54.152 39.5044C56.4295 39.5044 58.5107 38.6803 60.098 37.3264C60.7085 38.3366 61.0282 39.4771 61.0282 40.6704C61.0282 43.2938 59.4233 45.6795 56.9395 46.7479Z" fill="#F9FAF9"/>
<path d="M54.4427 33.0575C52.1085 33.0575 50.1526 31.5541 49.6732 29.5524C54.3497 28.9952 57.9734 25.337 57.9734 20.9182C57.9734 20.3499 57.4688 19.8894 56.8465 19.8894C56.2242 19.8894 55.7197 20.3499 55.7197 20.9182C55.7197 24.5865 52.4509 27.5708 48.4329 27.5708C46.4583 27.5708 44.6097 26.8615 43.2276 25.5735C42.7922 25.1678 42.0787 25.1611 41.6341 25.5587C41.1896 25.9564 41.1822 26.6076 41.6178 27.0135C43.1806 28.4698 45.1994 29.3595 47.3863 29.5754C47.9038 32.7068 50.8708 35.1151 54.4427 35.1151C55.065 35.1151 55.5695 34.6546 55.5695 34.0863C55.5695 33.518 55.065 33.0575 54.4427 33.0575Z" fill="#F9FAF9"/>
<path d="M50.8368 45.1283C50.4026 45.1283 49.9759 45.1574 49.5569 45.209C49.5578 45.1592 49.5598 45.1094 49.5598 45.0597C49.5598 40.2569 45.28 36.3496 40.0193 36.3496C39.397 36.3496 38.8925 36.8101 38.8925 37.3783C38.8925 37.9466 39.397 38.4071 40.0193 38.4071C44.0373 38.4071 47.3061 41.3915 47.3061 45.0597C47.3061 45.2949 47.2925 45.5308 47.2657 45.7638C43.7697 47.0573 41.2964 50.1883 41.2964 53.8385C41.2964 54.4068 41.8009 54.8673 42.4232 54.8673C43.0455 54.8673 43.5501 54.4068 43.5501 53.8385C43.5501 50.1702 46.8189 47.1859 50.8368 47.1859C51.4591 47.1859 51.9637 46.7254 51.9637 46.1571C51.9637 45.5888 51.4591 45.1283 50.8368 45.1283Z" fill="#F9FAF9"/>
</g>
<defs>
<clipPath id="clip0_38_24">
<rect width="64.2694" height="63.5088" fill="white" transform="translate(0.696045 0.137283)"/>
</clipPath>
</defs>
</svg>
