<svg width="90" height="90" viewBox="0 0 90 90" fill="none" xmlns="http://www.w3.org/2000/svg">
<g clip-path="url(#clip0_86_1592)">
<path d="M90 88.125C90 89.16 89.16 90 88.125 90H9.375C4.2075 90 0 85.7925 0 80.625V1.875C0 0.84 0.84 0 1.875 0C2.91 0 3.75 0.84 3.75 1.875V80.625C3.75 83.7262 6.27375 86.25 9.375 86.25H88.125C89.16 86.25 90 87.09 90 88.125ZM80.625 18.75H65.625C64.59 18.75 63.75 19.59 63.75 20.625C63.75 21.66 64.59 22.5 65.625 22.5H80.625C81.4912 22.5 82.3125 22.6987 83.0475 23.0475L61.4062 43.35C59.2163 45.5438 55.6463 45.5475 53.3325 43.2412L49.755 40.245C46.2188 36.705 40.0163 36.7238 36.5175 40.2262L15.57 60.5288C14.8275 61.2488 14.8087 62.4375 15.5287 63.18C15.8962 63.5588 16.3875 63.75 16.875 63.75C17.3438 63.75 17.8162 63.5737 18.18 63.2212L39.1463 42.9C41.2687 40.7775 44.8575 40.665 47.22 43.0088L50.7975 46.005C54.45 49.6612 60.4012 49.6613 64.0125 46.0462L85.6537 25.7437L85.695 25.7025C86.0475 26.4375 86.2463 27.2587 86.2463 28.1287V43.1287C86.2463 44.1637 87.0863 45.0037 88.1213 45.0037C89.1562 45.0037 89.9963 44.1637 89.9963 43.1287V28.125C89.9963 22.9575 85.7925 18.75 80.625 18.75Z" fill="#824209"/>
</g>
<defs>
<clipPath id="clip0_86_1592">
<rect width="90" height="90" fill="white"/>
</clipPath>
</defs>
</svg>
