<svg width="100" height="100" viewBox="0 0 100 100" fill="none" xmlns="http://www.w3.org/2000/svg">
<path d="M50 95.8334C46.5417 95.8334 43.125 94.6667 40.25 92.375C25.2917 80.3334 0 54.1667 0 32.5834C0 16.9167 11.6667 4.16669 26.0417 4.16669C36.625 4.16669 46 11.6667 50 22.0834C54 11.6667 63.375 4.16669 73.9583 4.16669C88.3333 4.16669 100 16.9167 100 32.5417C100 58.5834 66.5 86.9167 59.75 92.3334C56.875 94.6667 53.4167 95.7917 50 95.7917V95.8334ZM26.0417 8.33335C14.1667 8.33335 4.16667 19.4584 4.16667 32.5834C4.16667 52.625 28.4583 77.5834 42.8333 89.1667C47.0417 92.5834 52.9167 92.5834 57.1667 89.1667C75 74.7917 95.8333 51.3334 95.8333 32.5834C95.8333 19.4584 85.8333 8.37502 73.9583 8.37502C62.0833 8.37502 52.0833 19.8334 52.0833 33.375C52.0833 33.9584 51.8333 34.4584 51.4583 34.8334L42.5 43.7917C41.3333 44.9584 41.3333 46.875 42.5 48.0417L56.3333 61.875C59 64.5417 59 68.8334 56.3333 71.5L49.2917 78.5417C48.4583 79.375 47.1667 79.375 46.3333 78.5417C45.5 77.7084 45.5 76.4167 46.3333 75.5834L53.375 68.5417C54.4167 67.5 54.4167 65.8334 53.375 64.7917L39.5417 50.9584C36.75 48.1667 36.75 43.5834 39.5417 40.7917L47.875 32.4584C47.4583 19.2917 37.625 8.33335 26 8.33335H26.0417Z" fill="#824209"/>
</svg>
