<svg width="67" height="100" viewBox="0 0 67 100" fill="none" xmlns="http://www.w3.org/2000/svg">
<path d="M32.2405 100C31.2197 100 30.1822 99.775 29.178 99.3125C25.903 97.8 24.3113 94.3208 25.303 90.8542L32.6155 66.6667H10.4238C7.09465 66.6667 4.04465 65.1333 2.06132 62.4583C0.0779862 59.7833 -0.509514 56.4208 0.452986 53.2333L13.0447 7.45C14.3988 2.975 18.4072 0 23.028 0H41.2488C44.1155 0 46.803 1.40833 48.4363 3.7625C50.0697 6.11667 50.4447 9.12917 49.4405 11.8125L40.4405 37.5H56.253C60.178 37.5 63.6197 39.5708 65.4572 43.0417C67.2946 46.5125 67.078 50.5167 64.8738 53.7667L38.1655 96.7333C36.753 98.8542 34.5488 100 32.2405 100ZM23.0322 4.16667C20.2572 4.16667 17.853 5.95 17.0488 8.60833L4.45715 54.3917C3.86548 56.3542 4.21549 58.3708 5.40715 59.975C6.59882 61.5792 8.42799 62.5 10.428 62.5H35.4238C36.0822 62.5 36.703 62.8125 37.0947 63.3417C37.4863 63.8708 37.6072 64.5542 37.4155 65.1833L29.303 92.025C28.7946 93.8083 29.8072 95.0083 30.9322 95.525C32.053 96.0417 33.6238 96.0417 34.6655 94.4708L61.3822 51.4917C62.7488 49.475 62.8822 47.0708 61.778 44.9875C60.6738 42.9042 58.6113 41.6625 56.253 41.6625H37.503C36.828 41.6625 36.1947 41.3333 35.803 40.7833C35.4113 40.2333 35.3113 39.5292 35.5363 38.8875L45.5238 10.3875C46.0738 8.91667 45.8822 7.38333 45.0113 6.13333C44.1447 4.87917 42.7697 4.1625 41.2488 4.1625H23.028L23.0322 4.16667Z" fill="#824209"/>
</svg>
